<svg width="651" height="650" xmlns="http://www.w3.org/2000/svg" xmlns:xlink="http://www.w3.org/1999/xlink" overflow="hidden"><defs><clipPath id="clip0"><rect x="130" y="837" width="651" height="650"/></clipPath></defs><g clip-path="url(#clip0)" transform="translate(-130 -837)"><path d="M780.13 1434.22C780.13 1462.92 756.86 1486.17 728 1486.17L182.13 1486.17C153.4 1486.17 130 1462.92 130 1434.22L130 888.944C130 860.245 153.4 837 182.13 837L728 837C756.73 837 780.13 860.245 780.13 888.944L780.13 1434.22Z" fill="#FFE600" fill-rule="evenodd"/><path d="M463.39 944C325.693 944 214 1031.91 214 1140.44 214 1210.19 260.289 1271.39 329.723 1306.27L306.189 1393.79C305.278 1396.39 306.059 1399.37 308.009 1401.31 309.309 1402.61 311.13 1403.39 313.08 1403.39 314.64 1403.39 316.071 1402.74 317.371 1401.7L418.401 1333.63C433.094 1335.71 448.047 1336.87 463.26 1336.87 600.958 1336.87 712.65 1248.96 712.65 1140.44 712.78 1031.91 601.088 944 463.39 944" fill="#381E1E" fill-rule="evenodd"/><path d="M301.195 1109.11 273.977 1109.11C270.2 1109.11 267.074 1108.2 264.339 1106.52 261.604 1104.84 260.042 1102.38 259.391 1099.27 259.26 1098.49 259.13 1097.46 259 1096.55 259 1092.67 260.432 1089.56 263.298 1087.36 266.163 1085.16 269.679 1084 273.977 1084L357.065 1084C360.842 1084 364.098 1084.91 366.702 1086.59 369.437 1088.27 371.13 1090.6 371.781 1093.84 371.912 1094.74 372.042 1095.65 371.912 1096.55 371.912 1100.56 370.479 1103.67 367.744 1105.87 365.009 1108.07 361.493 1109.11 357.065 1109.11L329.977 1109.11 329.977 1202.15C329.977 1206.55 328.674 1210.18 326.07 1212.89 323.465 1215.61 319.949 1216.91 315.521 1216.91 311.874 1216.91 308.879 1215.87 306.274 1213.93 303.67 1211.86 302.107 1209.27 301.456 1205.78 301.195 1204.48 301.195 1203.32 301.195 1202.02L301.195 1109.11Z" fill="#FFE600" fill-rule="evenodd"/><path d="M379.615 1091.09C380.784 1087.84 382.472 1085.5 384.81 1084.08 387.148 1082.65 390.006 1082 393.643 1082L400.526 1082C404.293 1082 407.41 1082.78 409.878 1084.21 412.346 1085.63 414.424 1088.62 415.853 1092.9L450.532 1193.25C451.701 1196.36 452.481 1198.96 452.87 1201.29 453.13 1202.72 453.39 1203.89 453.39 1204.8 453.39 1208.43 451.961 1211.55 449.363 1214.01 446.766 1216.61 443.518 1217.78 439.882 1217.78 433.258 1217.78 428.971 1215.05 427.023 1209.6L419.62 1187.79 373.38 1187.79 365.977 1209.6C364.159 1215.05 359.872 1217.78 353.118 1217.78 349.741 1217.78 346.884 1217 344.676 1215.18 342.338 1213.5 340.909 1210.9 340.26 1207.78 340 1206.87 340 1205.84 340 1204.8 340 1203.37 340.13 1201.55 340.779 1199.48 341.299 1197.4 341.948 1195.32 342.728 1193.37L379.615 1091.09ZM396.89 1114.32 396.5 1114.32 379.615 1167.02 413.125 1167.02 396.89 1114.32Z" fill="#FFE600" fill-rule="evenodd"/><path d="M457.13 1096.75C457.13 1092.35 458.43 1088.73 461.03 1086.01 463.63 1083.29 467.14 1082 471.56 1082 475.2 1082 478.32 1083.04 480.79 1084.98 483.26 1086.92 484.95 1089.64 485.6 1093 485.86 1094.29 485.99 1095.46 485.86 1096.75L485.86 1189.93 533.83 1189.93C537.73 1189.93 540.98 1190.71 543.58 1192.52 546.18 1194.2 547.87 1196.66 548.39 1199.76 548.65 1200.54 548.78 1201.58 548.78 1202.48 548.78 1206.49 547.35 1209.6 544.49 1211.67 541.63 1213.87 538.12 1214.91 533.83 1214.91L473.9 1214.91C469.48 1214.91 465.84 1214 463.11 1212.19 460.38 1210.38 458.56 1207.53 457.65 1203.39 457.26 1201.71 457.13 1199.76 457 1197.56L457.13 1096.75Z" fill="#FFE600" fill-rule="evenodd"/><path d="M552 1096.8C552 1092.38 553.296 1088.75 555.889 1086.02 558.482 1083.3 561.982 1082 566.389 1082 570.019 1082 573 1083.04 575.593 1084.99 578.185 1086.93 579.741 1089.66 580.389 1093.03 580.648 1094.33 580.778 1095.5 580.648 1096.8L580.778 1140.28 625.759 1088.49C627.833 1086.28 629.518 1084.73 631.204 1083.56 632.889 1082.52 634.833 1082 637.167 1082 640.278 1082 643.13 1082.91 645.722 1084.6 648.315 1086.28 649.87 1088.62 650.518 1091.61 650.518 1091.74 650.648 1092.13 650.778 1092.77 650.778 1093.16 650.778 1093.68 650.907 1093.94 650.907 1096.02 650.389 1097.84 649.611 1099.39 648.704 1101.08 647.537 1102.64 646.241 1104.2L616.815 1136.39 651.555 1191.56 652.593 1193.25C654.926 1197.01 656.352 1199.74 656.741 1201.55 656.741 1201.68 656.87 1202.07 657 1202.46 657 1202.98 657 1203.24 657 1203.37 657 1208.43 655.574 1212.2 652.722 1214.4 649.87 1216.61 646.37 1217.78 642.352 1217.78 639.37 1217.78 637.037 1217.26 635.222 1216.22 633.407 1215.05 631.463 1213.11 629.648 1209.99L596.593 1156.77 580.907 1173.13 581.037 1202.85C581.037 1207.26 579.741 1210.9 577.148 1213.62 574.556 1216.35 571.056 1217.65 566.648 1217.65 563.019 1217.65 559.907 1216.61 557.445 1214.66 554.982 1212.59 553.296 1209.99 552.648 1206.49 552.389 1205.19 552.389 1204.02 552.389 1202.72L552 1096.8Z" fill="#FFE600" fill-rule="evenodd"/></g></svg>