<svg width="650" height="650" xmlns="http://www.w3.org/2000/svg" xmlns:xlink="http://www.w3.org/1999/xlink" overflow="hidden"><defs><clipPath id="clip0"><rect x="132" y="113" width="650" height="650"/></clipPath></defs><g clip-path="url(#clip0)" transform="translate(-132 -113)"><path d="M781.13 710.225C781.13 738.924 757.896 762.169 729.08 762.169L184.05 762.169C155.364 762.169 132 738.924 132 710.225L132 164.944C132 136.245 155.364 113 184.05 113L729.08 113C757.766 113 781.13 136.245 781.13 164.944L781.13 710.225Z" fill="#00C300" fill-rule="evenodd"/><path d="M399.631 275.979C359.174 274.159 318.587 275.459 278 275.329 278.259 383.749 278.13 492.169 278.13 600.589 318.587 600.849 359.174 600.719 399.631 600.589 400.279 546.899 398.853 493.079 400.279 439.259 413.635 457.849 425.695 477.349 439.31 495.679 462.002 531.039 487.677 564.319 509.462 600.199 550.308 601.239 591.024 600.199 631.87 600.849 632.26 595.779 632.778 590.709 632.778 585.639 632.13 482.159 633.297 378.679 632.26 275.199 591.932 274.939 551.605 275.329 511.277 275.069 511.018 329.149 511.536 383.229 510.888 437.179 473.413 383.879 438.013 328.759 399.631 275.979Z" fill="#FFFFFF" fill-rule="evenodd"/></g></svg>